<svg width="545" height="47" viewBox="0 0 545 47" fill="none" xmlns="http://www.w3.org/2000/svg">
<path d="M252.1 27.8001L263.8 45.4001H252.4L246.1 35.3001L239.7 45.4001H228.5L240.3 27.9001L228 9.6001H239.4L246.3 20.4001L253.2 9.6001H264.4L252.1 27.8001Z" fill="#F2F0EE"/>
<path d="M268.1 9.5H283.5C292.6 9.5 298.4 14.2 298.4 22.1V22.2C298.4 30.6 291.9 35.1 283 35.1H278.1V45.4H268.2V9.5H268.1ZM282.8 27.4C286.3 27.4 288.5 25.6 288.5 22.7V22.6C288.5 19.5 286.3 17.9 282.8 17.9H278.1V27.4H282.8Z" fill="#F2F0EE"/>
<path d="M336.9 9.5H353.9C359.4 9.5 363.2 10.9 365.6 13.4C367.7 15.4 368.8 18.2 368.8 21.7V21.8C368.8 27.3 365.9 30.9 361.4 32.8L370 45.3H358.5L351.3 34.4H351.2H346.9V45.4H337V9.5H336.9ZM353.3 26.7C356.7 26.7 358.6 25.1 358.6 22.4C358.6 19.6 356.6 18.1 353.2 18.1H346.7V26.7H353.3Z" fill="#F2F0EE"/>
<path d="M373.9 9.5H383.9V45.4H373.9V9.5Z" fill="#F2F0EE"/>
<path d="M425.2 9.5H434.5L449.2 28.4V9.5H459V45.4H450.3L435 25.7V45.4H425.2V9.5Z" fill="#F2F0EE"/>
<path d="M463.6 27.5999V27.4999C463.6 17.0999 471.6 8.8999 482.5 8.8999C489.8 8.8999 494.5 11.9999 497.7 16.3999L490.2 22.1999C488.2 19.5999 485.8 17.9999 482.4 17.9999C477.4 17.9999 473.8 22.2999 473.8 27.4999V27.5999C473.8 32.9999 477.3 37.1999 482.4 37.1999C486.1 37.1999 488.3 35.4999 490.5 32.7999L498 38.0999C494.6 42.7999 490.1 46.1999 482.1 46.1999C471.9 46.0999 463.6 38.2999 463.6 27.5999Z" fill="#F2F0EE"/>
<path d="M205.6 36.9V31.2H219.8V23.4H205.6V18H224.6V9.5H195.7V23.4H186.2V31.2H195.7V45.4H224.8V36.9H205.6Z" fill="#F2F0EE"/>
<path d="M539.5 9.6C542.151 9.6 544.3 7.45097 544.3 4.8C544.3 2.14903 542.151 0 539.5 0C536.849 0 534.7 2.14903 534.7 4.8C534.7 7.45097 536.849 9.6 539.5 9.6Z" fill="#F2F0EE"/>
<path d="M512.2 36.9V31.2H526.4V23.4H512.2V18H531.2V9.5H502.3V45.4H531.4V36.9H512.2Z" fill="#F2F0EE"/>
<path d="M400.3 36.9V31.2H414.6V23.4H400.3V18H419.3V9.5H390.5V45.4H419.6V36.9H400.3Z" fill="#F2F0EE"/>
<path d="M312.4 36.9V31.2H326.7V23.4H312.4V18H331.4V9.5H302.6V45.4H331.6V36.9H312.4Z" fill="#F2F0EE"/>
<path d="M28.8 16.6H24.7C23.4 16.6 23.2 16.8 21.7 18.3C20.9 19.1 8.5 31.6 8.5 31.6V10.6C8.5 9.9 8.1 9.5 7.4 9.5H1.1C0.400002 9.5 0 9.9 0 10.6V13.4C0 14.1 0.400002 14.5 1.1 14.5H3.4V40.4H1.1C0.400002 40.4 0 40.8 0 41.5V44.3C0 45 0.400002 45.4 1.1 45.4H10.8C11.5 45.4 11.9 45 11.9 44.3V41.5C11.9 40.8 11.5 40.4 10.8 40.4H8.5V38.3L13.5 33.3L22.2 44C23.3 45.5 23.3 45.5 25 45.5H28.8C29.5 45.5 29.9 45.1 29.9 44.4V41.6C29.9 40.9 29.5 40.5 28.8 40.5H25.7L17 29.8L24.9 21.7H28.8C29.5 21.7 29.9 21.3 29.9 20.7V17.8C29.9 17 29.6 16.6 28.8 16.6Z" fill="#F2F0EE"/>
<path d="M63 40.4H60.7V28.1C60.7 20.8 56.0999 16 48.8999 16C45.5999 16 42.8 17 40.7 19V17.7C40.7 17 40.3 16.6 39.6 16.6H33.2999C32.5999 16.6 32.2 17 32.2 17.7V20.5C32.2 21.2 32.5999 21.6 33.2999 21.6H35.6V40.4H33.2999C32.5999 40.4 32.2 40.8 32.2 41.5V44.3C32.2 45 32.5999 45.4 33.2999 45.4H42.8999C43.5999 45.4 44 45 44 44.3V41.5C44 40.8 43.5999 40.4 42.8999 40.4H40.7V28.9C40.7 24.2 44 20.8 48.6 20.8C53 20.8 55.7 23.7 55.7 28.5V40.4H53.3999C52.6999 40.4 52.2999 40.8 52.2999 41.5V44.3C52.2999 45 52.6999 45.4 53.3999 45.4H63C63.7 45.4 64.1 45 64.1 44.3V41.5C64.1 40.8 63.7 40.4 63 40.4Z" fill="#F2F0EE"/>
<path d="M78.5999 16C70.2999 16 63.8999 22.6 63.8999 31C63.8999 39.3 70.2999 45.9 78.4999 45.9C86.7999 45.9 93.2999 39.3 93.2999 30.9C93.2999 22.6 86.8999 16 78.5999 16ZM78.5999 41.1C73.2999 41.1 69.0999 36.6 69.0999 31C69.0999 25.3 73.0999 21 78.4999 21C83.7999 21 87.9999 25.5 87.9999 31.1C88.0999 36.8 83.9999 41.1 78.5999 41.1Z" fill="#F2F0EE"/>
<path d="M136.2 16.6H126.3C125.6 16.6 125.2 17 125.2 17.7V20.5C125.2 21.2 125.6 21.6 126.3 21.6H128.5L123.8 36.9L117.1 17.4C116.9 16.9 116.4 16.5 115.9 16.5H113.9C113.3 16.5 112.9 16.8 112.7 17.4L106.1 36.8L101.4 21.6H103.6C104.3 21.6 104.7 21.2 104.7 20.5V17.7C104.7 17 104.3 16.6 103.6 16.6H93.6C92.9 16.6 92.5 17 92.5 17.7V20.5C92.5 21.2 92.9 21.6 93.6 21.6H96L103.8 44.6C104 45.1 104.5 45.4 105 45.4H107.1C107.6 45.4 108.1 45.1 108.3 44.5L114.9 25.6L121.4 44.5C121.6 45 122.1 45.4 122.6 45.4H124.7C125.2 45.4 125.7 45.1 125.9 44.6L133.8 21.6H136.1C136.8 21.6 137.2 21.2 137.2 20.5V17.7C137.2 17 136.9 16.6 136.2 16.6Z" fill="#F2F0EE"/>
<path d="M150.2 40.4001H147.9V17.7001C147.9 17.0001 147.5 16.6001 146.8 16.6001H140.5C139.8 16.6001 139.4 17.0001 139.4 17.7001V20.5001C139.4 21.2001 139.8 21.6001 140.5 21.6001H142.8V40.4001H138.6C137.9 40.4001 137.5 40.8001 137.5 41.5001V44.3001C137.5 45.0001 137.9 45.4001 138.6 45.4001H150.2C150.9 45.4001 151.3 45.0001 151.3 44.3001V41.5001C151.3 40.8001 150.9 40.4001 150.2 40.4001Z" fill="#F2F0EE"/>
<path d="M172.6 30.7H169.8C169.1 30.7 168.7 31.1 168.7 31.8V37.1C168.7 38.9 167.4 40.8 165.2 40.8C162.5 40.8 161.3 39.7 161.3 37V21.6H168C168.7 21.6 169.1 21.2 169.1 20.5V17.7C169.1 17 168.7 16.6 168 16.6H161.3V10.6C161.3 9.9 160.9 9.5 160.2 9.5H157.3C156.6 9.5 156.2 9.9 156.2 10.6V16.6H153.1C152.4 16.6 152 17 152 17.7V20.5C152 21.2 152.4 21.6 153.1 21.6H156.2V37.4C156.2 42.6 159.6 45.9 164.8 45.9C170.2 45.9 173.7 42.7 173.7 37.7V31.9C173.7 31.1 173.3 30.7 172.6 30.7Z" fill="#F2F0EE"/>
<path d="M145.3 13.0001C147.1 13.0001 148.5 11.6001 148.5 9.8001C148.5 8.0001 147.1 6.6001 145.3 6.6001C143.5 6.6001 142.1 8.0001 142.1 9.8001C142.1 11.5001 143.5 13.0001 145.3 13.0001Z" fill="#F2F0EE"/>
</svg>
