<svg width="581" height="107" viewBox="0 0 581 107" fill="none" xmlns="http://www.w3.org/2000/svg">
<path d="M106.7 77.1L125.8 105.6H107.3L96.9999 89.3L86.6 105.6H68.4999L87.6 77.2L67.7 47.6H86.2L97.2999 65.1L108.5 47.6H126.6L106.7 77.1Z" fill="#333333"/>
<path d="M132.7 47.6H157.6C172.3 47.6 181.7 55.2 181.7 68V68.2C181.7 81.9 171.2 89.1 156.7 89.1H148.7V105.7H132.6V47.6H132.7ZM156.5 76.5C162.2 76.5 165.7 73.5 165.7 68.9V68.7C165.7 63.7 162.2 61.1 156.4 61.1H148.8V76.5H156.5Z" fill="#333333"/>
<path d="M244.1 47.6H271.6C280.5 47.6 286.6 49.9 290.5 53.9C293.9 57.2 295.6 61.7 295.6 67.4V67.6C295.6 76.5 290.9 82.4 283.6 85.4L297.5 105.6H278.9L267.2 88H267H260.1V105.6H244V47.6H244.1ZM270.8 75.5C276.3 75.5 279.4 72.8 279.4 68.6V68.4C279.4 63.8 276.1 61.5 270.7 61.5H260.2V75.5H270.8Z" fill="#333333"/>
<path d="M304.2 47.6H320.4V105.7H304.2V47.6Z" fill="#333333"/>
<path d="M387.3 47.6H402.3L426.2 78.3V47.6H442.1V105.7H428L403.2 73.8V105.7H387.3V47.6Z" fill="#333333"/>
<path d="M449.5 76.8V76.6C449.5 59.7 462.5 46.4 480.1 46.4C492 46.4 499.6 51.4 504.7 58.5L492.6 67.9C489.3 63.8 485.5 61.1 479.9 61.1C471.8 61.1 466 68 466 76.5V76.7C466 85.4 471.7 92.2 479.9 92.2C486 92.2 489.5 89.4 493 85.1L505.1 93.7C499.6 101.3 492.2 106.8 479.4 106.8C462.8 106.8 449.5 94.1 449.5 76.8Z" fill="#333333"/>
<path d="M31.3 92V82.8H54.5V70.1H31.3V61.3H62.1V47.6H15.4V70.1H0V82.8H15.4V105.7H62.5V92H31.3Z" fill="#333333"/>
<path d="M572.4 47.5C576.652 47.5 580.1 44.0526 580.1 39.8C580.1 35.5474 576.652 32.1 572.4 32.1C568.147 32.1 564.7 35.5474 564.7 39.8C564.7 44.0526 568.147 47.5 572.4 47.5Z" fill="#333333"/>
<path d="M528.2 92V82.8H551.3V70.1H528.2V61.3H559V47.6H512.2V105.7H559.4V92H528.2Z" fill="#333333"/>
<path d="M346.9 92V82.8H370V70.1H346.9V61.3H377.7V47.6H331V105.7H378.1V92H346.9Z" fill="#333333"/>
<path d="M204.4 92V82.8H227.6V70.1H204.4V61.3H235.2V47.6H188.5V105.7H235.6V92H204.4Z" fill="#333333"/>
<path d="M42.7 9.39999H38.8C37.6 9.39999 37.4 9.59999 36 11C35.3 11.7 23.5 23.6 23.5 23.6V3.79999C23.5 3.09999 23.1 2.79999 22.5 2.79999H16.5C15.8 2.79999 15.5 3.19999 15.5 3.79999V6.49999C15.5 7.19999 15.9 7.49999 16.5 7.49999H18.7V32H16.5C15.8 32 15.5 32.4 15.5 33V35.7C15.5 36.4 15.9 36.7 16.5 36.7H25.7C26.4 36.7 26.7 36.3 26.7 35.7V33C26.7 32.3 26.3 32 25.7 32H23.5V30L28.2 25.2L36.5 35.3C37.6 36.7 37.6 36.7 39.2 36.7H42.8C43.5 36.7 43.8 36.3 43.8 35.7V33C43.8 32.3 43.4 32 42.8 32H39.8L31.6 21.8L39.1 14.2H42.8C43.5 14.2 43.8 13.9 43.8 13.2V10.5C43.8 9.79999 43.4 9.39999 42.7 9.39999Z" fill="#333333"/>
<path d="M75.1 32H72.9V20.3C72.9 13.4 68.5 8.90002 61.8 8.90002C58.7 8.90002 56.1 9.90002 54 11.8V10.5C54 9.80002 53.6 9.50002 53 9.50002H47.1C46.4 9.50002 46.1 9.90002 46.1 10.5V13.2C46.1 13.9 46.5 14.2 47.1 14.2H49.3V32H47.1C46.4 32 46.1 32.4 46.1 33V35.7C46.1 36.4 46.5 36.7 47.1 36.7H56.2C56.9 36.7 57.2 36.3 57.2 35.7V33C57.2 32.3 56.8 32 56.2 32H54V21.1C54 16.6 57.1 13.4 61.4 13.4C65.6 13.4 68.1 16.1 68.1 20.7V31.9H65.9C65.2 31.9 64.9 32.3 64.9 32.9V35.6C64.9 36.3 65.3 36.6 65.9 36.6H75C75.7 36.6 76 36.2 76 35.6V32.9C76.1 32.3 75.7 32 75.1 32Z" fill="#333333"/>
<path d="M89.9 8.90002C82.1 8.90002 76 15.2 76 23.1C76 31 82.1 37.2 89.8 37.2C97.7 37.2 103.8 30.9 103.8 23C103.8 15.1 97.7 8.90002 89.9 8.90002ZM89.9 32.6C84.9 32.6 80.9 28.4 80.9 23C80.9 17.6 84.7 13.5 89.8 13.5C94.9 13.5 98.8 17.7 98.8 23.1C98.8 28.5 95 32.6 89.9 32.6Z" fill="#333333"/>
<path d="M144.4 9.39999H135C134.3 9.39999 134 9.79999 134 10.4V13.1C134 13.8 134.4 14.1 135 14.1H137.1L132.6 28.5L126.3 10.1C126.1 9.59999 125.7 9.29999 125.2 9.29999H123.3C122.8 9.29999 122.3 9.59999 122.1 10.1L115.8 28.5L111.3 14.1H113.4C114.1 14.1 114.4 13.7 114.4 13.1V10.5C114.4 9.79999 114 9.49999 113.4 9.49999H103.9C103.2 9.49999 102.9 9.89999 102.9 10.5V13.2C102.9 13.9 103.3 14.2 103.9 14.2H106.1L113.5 36C113.7 36.5 114.1 36.8 114.6 36.8H116.6C117.1 36.8 117.6 36.5 117.7 36L123.9 18.1L130.1 36C130.3 36.5 130.7 36.8 131.2 36.8H133.2C133.7 36.8 134.2 36.5 134.3 36L141.7 14.2H143.9C144.6 14.2 144.9 13.8 144.9 13.2V10.5C145.4 9.79999 145 9.39999 144.4 9.39999Z" fill="#333333"/>
<path d="M157.6 32H155.4V10.5C155.4 9.8 155 9.5 154.4 9.5H148.4C147.7 9.5 147.4 9.9 147.4 10.5V13.2C147.4 13.9 147.8 14.2 148.4 14.2H150.6V32H146.7C146 32 145.7 32.4 145.7 33V35.7C145.7 36.4 146.1 36.7 146.7 36.7H157.7C158.4 36.7 158.7 36.3 158.7 35.7V33C158.7 32.3 158.3 32 157.6 32Z" fill="#333333"/>
<path d="M178.8 22.8H176.2C175.5 22.8 175.2 23.2 175.2 23.8V28.9C175.2 30.6 174 32.4 171.9 32.4C169.3 32.4 168.2 31.3 168.2 28.8V14.2H174.5C175.2 14.2 175.5 13.8 175.5 13.2V10.5C175.5 9.79999 175.1 9.49999 174.5 9.49999H168.2V3.79999C168.2 3.09999 167.8 2.79999 167.2 2.79999H164.4C163.7 2.79999 163.4 3.19999 163.4 3.79999V9.49999H160.5C159.8 9.49999 159.5 9.89999 159.5 10.5V13.2C159.5 13.9 159.9 14.2 160.5 14.2H163.4V29.1C163.4 34 166.6 37.1 171.5 37.1C176.6 37.1 179.9 34 179.9 29.3V23.8C179.9 23.2 179.5 22.8 178.8 22.8Z" fill="#333333"/>
<path d="M153 6C154.7 6 156 4.6 156 3C156 1.3 154.6 0 153 0C151.3 0 150 1.4 150 3C149.9 4.6 151.3 6 153 6Z" fill="#333333"/>
</svg>
