<svg width="61" height="79" viewBox="0 0 61 79" fill="none" xmlns="http://www.w3.org/2000/svg">
<g clip-path="url(#clip0_192_3323)">
<path d="M2.62255 22.4027C1.82991 23.1175 1.19055 23.987 0.743454 24.9582C0.296356 25.9293 0.0508881 26.9817 0.0220261 28.0513C-0.0592499 30.1877 0.700283 32.2703 2.13627 33.8485C2.30945 34.0224 2.49303 34.1855 2.68597 34.337C1.10124 35.8013 0.151527 37.8315 0.0408401 39.9915C-0.0698509 42.1515 0.667316 44.2689 2.09399 45.889C2.81914 46.7137 3.70617 47.3789 4.69942 47.843C5.69267 48.3071 6.77071 48.56 7.86587 48.5859H23.6804L23.7861 59.8406C23.8141 64.6899 25.7545 69.3304 29.1824 72.7455C32.6103 76.1606 37.2461 78.0718 42.0743 78.0605H42.2012L42.0743 73.8134C40.2363 73.8218 38.4146 73.4665 36.7133 72.7678C35.012 72.069 33.4644 71.0406 32.1588 69.7411C30.8533 68.4416 29.8153 66.8966 29.1042 65.1942C28.3932 63.4918 28.0229 61.6654 28.0146 59.8193L27.8877 46.4411H25.7735V44.3176H8.01387C7.49905 44.2988 6.99322 44.1764 6.52637 43.9576C6.05953 43.7389 5.64117 43.4282 5.29612 43.044C4.95106 42.6598 4.68632 42.2099 4.51761 41.721C4.34889 41.2321 4.27964 40.7142 4.31394 40.1979C4.38964 39.1282 4.86549 38.1268 5.64591 37.3948C6.34313 36.7668 7.24645 36.419 8.18301 36.418H8.60585V32.1709H7.92929C7.43589 32.1617 6.94983 32.0493 6.50209 31.8409C6.05434 31.6325 5.65474 31.3327 5.32878 30.9605C4.98794 30.5818 4.72475 30.1393 4.55425 29.6583C4.38374 29.1773 4.30927 28.6674 4.33508 28.1575C4.36769 27.1958 4.76832 26.2838 5.45358 25.6114C6.13883 24.9389 7.0559 24.5578 8.01387 24.5475H8.331V20.3004H7.86587C7.37471 20.29 6.8908 20.1793 6.44368 19.9748C5.99657 19.7703 5.59563 19.4765 5.26535 19.1112C4.58495 18.3415 4.22868 17.3366 4.27166 16.3082C4.27485 15.7068 4.42495 15.1155 4.7088 14.586C4.99264 14.0566 5.40155 13.6052 5.89962 13.2715C6.15253 13.6986 6.45023 14.0972 6.78761 14.4607C7.50653 15.259 8.37954 15.9022 9.35358 16.3512C10.3276 16.8002 11.3824 17.0457 12.4538 17.0726H12.9612V12.8256H12.5172C12.0256 12.8065 11.5426 12.6897 11.0963 12.4819C10.6499 12.2742 10.249 11.9796 9.91668 11.6152C9.23807 10.8431 8.87551 9.84164 8.90185 8.81209C8.92951 7.83199 9.33953 6.90206 10.0435 6.22279C10.7475 5.54352 11.6891 5.16931 12.6652 5.18085H12.9612V0.933777H12.6652C10.5928 0.921646 8.59756 1.72289 7.10473 3.16675C5.61189 4.6106 4.73947 6.58293 4.67336 8.66344C4.66292 8.8119 4.66292 8.96091 4.67336 9.10938C3.29578 9.70958 2.11683 10.6913 1.27441 11.9398C0.431984 13.1884 -0.0390778 14.652 -0.083683 16.1595C-0.164963 18.2959 0.59457 20.3786 2.03056 21.9568C2.21687 22.1196 2.41472 22.2687 2.62255 22.4027Z" fill="#333333"/>
<path d="M47.9727 19.5779V38.1164C47.9687 39.8691 47.6107 41.6028 46.9202 43.2125C46.2297 44.8221 45.2212 46.2743 43.9556 47.4811C42.6083 48.7879 41.5389 50.3555 40.8121 52.0893C40.0853 53.823 39.7162 55.6868 39.7271 57.5679V59.6915H35.3929V63.9385H39.7271V68.3555H43.9556V57.5679C43.9378 56.2399 44.1935 54.9225 44.7065 53.6983C45.2194 52.4741 45.9787 51.3696 46.9367 50.4541C48.589 48.8541 49.9059 46.9383 50.81 44.8194C51.7141 42.7006 52.1871 40.4215 52.2012 38.1164V19.5779C52.1956 14.387 50.14 9.41024 46.4855 5.73969C42.831 2.06914 37.8761 0.00456238 32.7079 -0.00106049H18.1619V4.24601H32.7079C36.7546 4.25163 40.634 5.86875 43.4955 8.74282C46.357 11.6169 47.9671 15.5134 47.9727 19.5779Z" fill="#333333"/>
<path d="M56.6407 40.1758H60.8691V6.07184H56.6407V40.1758Z" fill="#333333"/>
<rect x="35.3594" y="59.6836" width="4.34447" height="4.25154" fill="#FF00FF"/>
</g>
<defs>
<clipPath id="clip0_192_3323">
<rect width="60.869" height="78.0611" fill="white" transform="matrix(-1 0 0 -1 60.8691 78.0605)"/>
</clipPath>
</defs>
</svg>
